<svg xmlns="http://www.w3.org/2000/svg" viewBox="0 0 180 180"><defs><linearGradient id="g" x1="0" y1="1" x2="1" y2="0"><stop stop-color="#1269d8"/><stop offset="1" stop-color="#21c7ff"/></linearGradient></defs><rect width="180" height="180" rx="42" fill="#071a2f"/><path d="M48 30h54l28 28v70c0 15-12 27-27 27H48c-15 0-27-12-27-27V57c0-15 12-27 27-27z" fill="#fff"/><path d="M102 30v28h28" fill="#dff5ff"/><path d="M50 71h44M50 91h34M50 111h24" stroke="#1269d8" stroke-width="10" stroke-linecap="round"/><path d="M33 143c35 3 68-15 103-56" fill="none" stroke="url(#g)" stroke-width="14" stroke-linecap="round"/><path d="M126 72l28 12-12 28z" fill="#21c7ff"/></svg>